<?xml version="1.0" encoding="UTF-8"?>
<svg version="1.1" xmlns="http://www.w3.org/2000/svg" width="512" height="512">
<path d="M0 0 C2.0217527 0.65868779 3.89124083 1.47939798 5.83203125 2.34375 C8.67038595 3.20292764 11.16709018 3.08731837 14.125 3 C19.1211005 2.85689874 21.54378119 3.72641897 26 6 C28.12218732 6.15098566 30.24839136 6.24916458 32.375 6.3125 C40.07906983 6.71751396 43.74187917 9.74187917 49 15 C50.4936608 15.23266639 51.99578176 15.41255419 53.5 15.5625 C60.39341923 16.81766015 64.29396779 21.08080257 69 26 C69.55429688 26.5465625 70.10859375 27.093125 70.6796875 27.65625 C76.98482129 34.33628364 86 47.59134081 86 57 C86.66 57 87.32 57 88 57 C88.09023438 56.33484375 88.18046875 55.6696875 88.2734375 54.984375 C89.21657246 51.11042282 90.83414021 47.79837024 92.625 44.25 C92.98400391 43.5384375 93.34300781 42.826875 93.71289062 42.09375 C98.6732262 32.50551757 106.70528375 20.37525441 117 16 C118.8871875 15.87625 118.8871875 15.87625 120.8125 15.75 C125.56006619 15.35361876 128.01882693 12.81835151 131.3359375 9.59375 C134.4529862 6.60840759 137.04701824 6.82651282 141.25 6.625 C146.33189126 6.30172431 146.33189126 6.30172431 151 4.4375 C155.29033598 2.38171401 159.20084072 2.96646348 163.89453125 3.09375 C167.77967105 2.97646276 170.47276067 1.56766192 174 0 C178.68979481 -0.47034279 183.18767782 -0.75832816 187.5859375 1.08203125 C190.38098139 2.14487156 191.22247726 1.87937013 194 1 C200.67279721 0.47585279 205.03573781 0.89361344 211 4 C212.84830337 4.22245553 214.7044928 4.38371992 216.5625 4.5 C221.28012857 4.80809003 224.55502163 5.55502163 228 9 C230.18590788 9.13346792 232.37402811 9.23127358 234.5625 9.3125 C241.60708866 9.75772375 246.85670314 10.85670314 252 16 C254.26042866 16.46984829 256.53395641 16.87779811 258.8125 17.25 C266.72526585 18.86336107 266.72526585 18.86336107 269.3125 21.8125 C272.41655089 27.67570724 272.0223866 32.25389487 271.05859375 38.6328125 C270.99066865 41.37698668 271.70559869 42.62292102 273 45 C273.58850427 50.88504269 272.73768242 53.85568692 269.87890625 58.92578125 C268.59060867 61.96616354 268.89067347 64.65167704 269.046875 67.8984375 C268.95495662 72.01944487 266.6715798 75.04429029 264.375 78.3125 C262.96834729 81.06186667 262.86297873 82.31342819 262.75 85.3125 C262.37325984 90.3691902 260.07397417 92.51736952 256.6328125 96.03515625 C254.49248064 98.61072306 254.16377806 100.7639865 253.57421875 103.984375 C252.0962903 109.17220548 248.35654279 113.15894347 243.875 115.9375 C240.74332368 118.18413736 240.48216701 118.91456836 239.25 122.375 C236.97420976 128.24363356 232.5061455 130.42617572 227 133 C226.01 133.33 225.02 133.66 224 134 C222.90669134 135.70657962 222.90669134 135.70657962 221.9375 137.75 C218.8913665 142.97731551 214.45261373 144.79777931 209 147 C209.89460938 147.61746094 210.78921875 148.23492187 211.7109375 148.87109375 C231.07040727 162.36576717 245.70788335 177.78951638 250.63134766 201.70996094 C251.51363204 207.19064143 251.82559981 212.78101344 252.05371094 218.32373047 C252.42375676 224.54162165 253.64295498 228.46329118 258 233 C260.10602929 234.90943284 260.10602929 234.90943284 262.3125 236.375 C276.39226348 246.9406407 284.44663497 262.31708276 289 279 C289.36738281 280.25296875 289.36738281 280.25296875 289.7421875 281.53125 C294.58498852 300.90245408 289.83267048 321.35628401 280.07324219 338.32226562 C278.57244505 340.6683707 276.763715 342.64681943 274.875 344.6875 C269.10670754 351.35885195 267.8169547 360.17190768 265.67919922 368.51171875 C264.76814225 371.84942277 263.60633057 375.01635377 262.375 378.25 C260.77263808 382.53138974 259.57112031 386.69630385 258.63842773 391.15649414 C253.60529774 415.22123208 239.30786187 435.0480025 218.76806641 448.5078125 C213.45215484 451.86778092 207.92906515 454.58177865 202.2578125 457.296875 C199.12044982 458.93703103 196.44183323 460.73925182 193.625 462.875 C183.75489176 470.33145732 172.96077924 475.65535278 161.625 480.5 C154.8188289 483.43348585 149.67822802 486.43070236 144.3984375 491.73828125 C129.04179749 506.21954275 107.88444559 512.62091242 87.1875 512.4375 C85.96063477 512.42847656 84.73376953 512.41945313 83.46972656 512.41015625 C62.14256478 512.00403204 43.73598843 504.14650445 27.73828125 490 C21.92937257 484.95049025 16.03302366 482.03946595 9.02172852 479.0637207 C-2.89365999 473.9810186 -13.58760795 467.43382785 -24.13232422 459.95043945 C-28.37079868 456.98663536 -32.57648141 454.5936374 -37.25 452.375 C-57.34810106 442.74798678 -73.51675625 425.25764416 -81.02685547 404.25195312 C-82.99330178 398.39612584 -84.53071826 392.42994468 -86.03198242 386.44091797 C-88.27580745 377.59976443 -91.20195453 368.99793301 -94.19140625 360.38500977 C-94.73332945 358.78656541 -95.25141622 357.1798533 -95.74609375 355.56616211 C-97.16402083 350.98680738 -98.67790535 347.57888805 -101.75 343.8125 C-114.05977735 327.60349299 -118.52467159 309.11674407 -117 289 C-114.11197779 267.99498663 -103.9652267 248.43575642 -87.43359375 234.8984375 C-85.91270691 233.75105898 -84.37456424 232.62581182 -82.8125 231.53515625 C-80.20369208 229.32554092 -79.17684941 227.13882566 -78.65283203 223.7644043 C-78.60497559 222.95914307 -78.55711914 222.15388184 -78.5078125 221.32421875 C-78.41367065 219.96973633 -78.41367065 219.96973633 -78.31762695 218.58789062 C-78.25406006 217.63076172 -78.19049316 216.67363281 -78.125 215.6875 C-76.2120943 191.99764254 -67.85413039 172.98070982 -49.70703125 157.1484375 C-45.02221789 153.43033166 -40.05740581 150.18912016 -35 147 C-35.66386719 146.731875 -36.32773438 146.46375 -37.01171875 146.1875 C-42.92734165 143.56217246 -45.66896754 141.53588552 -48.66015625 135.8515625 C-50.77478066 132.92931185 -53.57054395 132.16856028 -56.85546875 130.91015625 C-61.56125447 128.91298307 -63.82473409 125.56067716 -65.8125 121.0625 C-67.74137972 116.85832951 -70.35954004 115.06569737 -74.1015625 112.4921875 C-78.07180089 109.37154745 -79.66122395 105.35510422 -80.875 100.5 C-81.9834369 97.05152963 -82.64195768 96.14253936 -85.0625 93.6875 C-88.43821788 90.07645563 -88.47758579 87.23154553 -88.66015625 82.43359375 C-89.22622522 78.38001937 -91.44742142 76.12690877 -94 73 C-95.0051958 69.98441261 -94.99128683 68.36185732 -94.8125 65.25 C-94.75446147 61.60940109 -94.99600038 59.42670469 -97 56.375 C-99.57690319 52.02647586 -99.48939643 49.97553033 -99 45 C-98.65195313 44.3709375 -98.30390625 43.741875 -97.9453125 43.09375 C-96.70978431 40.35720821 -97.06617928 38.63664662 -97.5 35.6875 C-98.12532097 30.03700927 -98.00147341 25.53960541 -94.34375 20.8984375 C-91.3349749 18.46132967 -88.99292623 18.16031886 -85.1875 17.5625 C-79.09320702 16.41586068 -75.69278114 14.96279297 -71 11 C-66.51138406 9.50379469 -61.95717245 9.66288808 -57.25 9.4765625 C-53.79842565 8.97044222 -53.1194262 8.58305068 -51 6 C-48.05152139 5.0171738 -45.77062949 4.80410296 -42.6875 4.625 C-39.16263925 4.34393267 -37.17140321 4.08927251 -34 2.4375 C-28.90282517 -0.00489627 -22.85769197 0.29311993 -17.41015625 1.640625 C-12.13330845 2.42744834 -6.08537059 -0.58725954 0 0 Z M-23 15 C-22.505 15.7425 -22.01 16.485 -21.5 17.25 C-20 20 -20 20 -20 24 C-20.7734375 23.72285156 -21.546875 23.44570313 -22.34375 23.16015625 C-28.27881997 21.09610345 -33.72966132 19.48233374 -40 19 C-39.505 19.8971875 -39.505 19.8971875 -39 20.8125 C-38 23 -38 23 -38 26 C-44.58988764 25.09550562 -44.58988764 25.09550562 -47.28125 24.46875 C-50.66076164 23.88607558 -53.88503121 23.90546758 -57.3125 23.9375 C-58.56675781 23.94652344 -59.82101563 23.95554687 -61.11328125 23.96484375 C-62.06589844 23.97644531 -63.01851562 23.98804688 -64 24 C-62.35 26.31 -60.7 28.62 -59 31 C-66.59 31 -74.18 31 -82 31 C-79.74813646 35.38571932 -79.74813646 35.38571932 -77.48266602 39.7644043 C-75.76199884 43.15997885 -74.51296008 46.22143489 -74 50 C-76.97 50 -79.94 50 -83 50 C-80.4897114 54.87291316 -76.90448111 58.25524766 -73 62 C-71.9977247 62.99771951 -70.99695588 63.99696512 -70 65 C-72 67 -72 67 -75.625 67.125 C-76.73875 67.08375 -77.8525 67.0425 -79 67 C-76.7140466 71.26763313 -73.76416143 74.47663624 -70.3125 77.8125 C-69.54583008 78.56563477 -69.54583008 78.56563477 -68.76367188 79.33398438 C-67.51365638 80.56063509 -66.2574532 81.78097491 -65 83 C-68.465 83.99 -68.465 83.99 -72 85 C-67.90919132 90.59077187 -62.94202675 94.44530081 -57 98 C-56.34 98 -55.68 98 -55 98 C-55 98.66 -55 99.32 -55 100 C-59.455 100.495 -59.455 100.495 -64 101 C-60.51363477 104.9792022 -56.44848564 107.2382646 -51.875 109.75 C-50.78251953 110.36681641 -50.78251953 110.36681641 -49.66796875 110.99609375 C-46.05369225 113.21068009 -46.05369225 113.21068009 -42 114 C-42 114.66 -42 115.32 -42 116 C-44.64 116.33 -47.28 116.66 -50 117 C-47.39774853 120.15396557 -44.47295654 121.1696965 -40.6875 122.5625 C-39.57761719 122.97628906 -38.46773437 123.39007813 -37.32421875 123.81640625 C-34.22845503 124.9186582 -31.12211282 125.97504012 -28 127 C-29.66666667 128.66666667 -31.33333333 130.33333333 -33 132 C-27.69251028 133.67753327 -22.59092076 134.54705027 -17.0625 135.125 C-15.89364258 135.25455078 -15.89364258 135.25455078 -14.70117188 135.38671875 C-12.8013663 135.59651323 -10.90075826 135.79901994 -9 136 C-9 139 -9 139 -10.5 140.6875 C-10.995 141.120625 -11.49 141.55375 -12 142 C7.69379366 142.76398337 26.80871716 139.66970039 42 126 C46.28772081 121.00768379 48.32656444 116.36213978 50 110 C24.57218962 82.80841086 -9.57196485 65.40253019 -42 48 C-8.10188148 59.21274019 28.6032019 74.27781384 55.63671875 98.34765625 C57.80171726 100.21622701 57.80171726 100.21622701 60.0625 99.91796875 C67.24789902 96.51359623 71.91109373 91.49114848 75.25 84.3125 C78.55361777 69.72152153 72.6593351 56.23946275 65 44 C61.46417851 39.0366319 58.03290592 34.5040631 53 31 C52.34 32.65 51.68 34.3 51 36 C48.0733087 34.69285749 46.14680044 33.35100609 44.01953125 30.9609375 C43.49552734 30.38085938 42.97152344 29.80078125 42.43164062 29.203125 C41.63016602 28.29820313 41.63016602 28.29820313 40.8125 27.375 C38.89492208 25.22876166 36.96146119 23.10686451 35 21 C34.67 21 34.34 21 34 21 C33.67 23.64 33.34 26.28 33 29 C28.39701968 26.4174429 24.82956239 23.227575 20.98828125 19.64453125 C19.17318553 17.78754973 19.17318553 17.78754973 17 18 C16.34 20.31 15.68 22.62 15 25 C10.73979589 23.0329916 7.12882056 20.29919201 3.33984375 17.55859375 C1.00588292 15.85599119 1.00588292 15.85599119 -2 15 C-2 17.31 -2 19.62 -2 22 C-6.59557334 21.03019076 -10.73831606 19.02151615 -15.02734375 17.15625 C-17.7081894 16.1135032 -20.16886936 15.45882043 -23 15 Z M171.75 17.75 C170.55310547 18.56597656 170.55310547 18.56597656 169.33203125 19.3984375 C168.56246094 19.92695313 167.79289062 20.45546875 167 21 C165.81398252 21.79388594 164.62674375 22.58595522 163.4375 23.375 C162.633125 23.91125 161.82875 24.4475 161 25 C158.64046906 22.64046906 158.50858587 21.22104383 158 18 C153.21342269 20.73518703 149.08905766 23.36641351 146 28 C145.01 28 144.02 28 143 28 C142.34 26.02 141.68 24.04 141 22 C133.62534578 28.10946058 133.62534578 28.10946058 127 35 C127 35.66 127 36.32 127 37 C126.01 37 125.02 37 124 37 C123.34 35.02 122.68 33.04 122 31 C110.23072275 39.6046034 102.21542008 55.89884462 99.40625 69.89453125 C98.38782173 77.67963199 99.51657101 84.47742108 104 91 C107.6575218 95.50088241 111.03506669 99.18531196 117 100 C120.08144775 98.54217964 122.6032087 96.44049366 125.25 94.3125 C126.86207023 93.08611456 128.47805885 91.86486503 130.09765625 90.6484375 C130.91637207 90.0306543 131.73508789 89.41287109 132.57861328 88.77636719 C157.92635155 70.18086975 188.13774646 57.27539693 218 48 C217.44465576 48.27972656 216.88931152 48.55945312 216.31713867 48.84765625 C188.99217299 62.68392665 161.17208009 77.72907921 138 98 C137.08347656 98.79535156 136.16695312 99.59070313 135.22265625 100.41015625 C129.67392254 105.30040142 129.67392254 105.30040142 125 111 C130.8300421 124.25009568 137.44270217 131.58029731 151 137 C160.66919059 140.25075903 169.7094001 142.15301416 179.9375 142.0625 C180.96327148 142.05573242 180.96327148 142.05573242 182.00976562 142.04882812 C183.67321604 142.0371956 185.3366205 142.01926694 187 142 C186.505 141.38125 186.01 140.7625 185.5 140.125 C184 138 184 138 184 136 C184.62044189 135.91959473 185.24088379 135.83918945 185.88012695 135.75634766 C188.69204854 135.38732078 191.50221801 135.00630375 194.3125 134.625 C195.28896484 134.49867188 196.26542969 134.37234375 197.27148438 134.2421875 C198.20927734 134.11328125 199.14707031 133.984375 200.11328125 133.8515625 C200.97735596 133.73635254 201.84143066 133.62114258 202.73168945 133.50244141 C205.26452196 133.08483053 205.26452196 133.08483053 208 131 C206.35 129.35 204.7 127.7 203 126 C204.2375 125.773125 205.475 125.54625 206.75 125.3125 C213.22049311 123.88261361 221.23613373 121.76386627 226 117 C223.03 116.67 220.06 116.34 217 116 C217 115.34 217 114.68 217 114 C218.1446875 113.690625 218.1446875 113.690625 219.3125 113.375 C226.75349641 110.60039117 233.79427735 107.10326104 239 101 C236.69 100.67 234.38 100.34 232 100 C232 99.34 232 98.68 232 98 C233.9765625 96.44921875 233.9765625 96.44921875 236.625 94.6875 C240.62126772 91.96844853 244.39772471 89.22308842 248 86 C248 85.67 248 85.34 248 85 C245.36 84.67 242.72 84.34 240 84 C242.69963263 80.69735664 245.2592523 77.58201605 248.625 74.9375 C251.44739692 72.63501831 253.10465394 70.0887121 255 67 C251.7 67 248.4 67 245 67 C246.78513121 63.31816688 248.9619493 61.07160013 252.0625 58.5 C255.1375361 55.92148349 257.02394012 54.02624702 258 50 C255.03 50 252.06 50 249 50 C249.74038859 47.95482824 250.49278659 45.91400236 251.25 43.875 C251.66765625 42.73804687 252.0853125 41.60109375 252.515625 40.4296875 C254 37 254 37 258 31 C250.41 30.67 242.82 30.34 235 30 C236.32 28.68 237.64 27.36 239 26 C239 25.34 239 24.68 239 24 C229.80987806 23.63293892 221.80646119 24.29031963 213 27 C214.875 21.25 214.875 21.25 216 19 C209.04339229 19.57021375 202.68572695 21.01302694 196 23 C196.54723683 19.62537285 197.0549 17.91765 199 15 C190.9962001 16.35657625 184.26168046 19.43088967 177 23 C177.33 20.36 177.66 17.72 178 15 C175.23042496 15 174.02168081 16.1891853 171.75 17.75 Z M38.4453125 167.0703125 C35.19065477 171.41572039 34.57894501 174.30261506 35.33984375 179.62890625 C37.39393749 187.00662755 43.68321028 192.15309692 50 196 C70.02054621 206.71007943 94.2718046 207.85350092 116 202 C125.37042357 198.94159786 134.60907038 194.49268175 140.15234375 185.98046875 C142.13292216 181.3530344 141.78569605 176.56968826 140.3359375 171.828125 C135.37483029 160.69798882 124.20012084 154.12294398 113.43359375 149.453125 C86.30898334 139.32977973 57.75129336 144.71129281 38.4453125 167.0703125 Z M-41 175 C-53.34521476 190.02559542 -56.60475756 206.09572674 -56 225 C-39.33824606 226.14053673 -18.90985832 205.17038814 -7 195 C-2.55217396 191.11918785 1.74641531 187.09167485 6 183 C6.60150879 182.42572266 7.20301758 181.85144531 7.82275391 181.25976562 C18.32538521 171.72088732 18.32538521 171.72088732 26 160 C26 158.68 26 157.36 26 156 C23.95928485 155.66089006 21.91737379 155.32897296 19.875 155 C18.73804688 154.814375 17.60109375 154.62875 16.4296875 154.4375 C-4.43789842 151.7755756 -26.53698999 159.80002132 -41 175 Z M150 158 C151.38995306 167.7594258 160.6439717 174.9642276 167.32324219 181.58398438 C168.74116919 182.99123568 170.1479781 184.40966037 171.5546875 185.828125 C177.72679247 191.98303748 184.15637315 197.60631615 191 203 C191.7312207 203.58523437 192.46244141 204.17046875 193.21582031 204.7734375 C200.57130653 210.63259565 208.03284444 216.27889752 216.0625 221.1875 C216.64483398 221.54972656 217.22716797 221.91195312 217.82714844 222.28515625 C222.14608043 224.83354837 226.09753644 226.15438988 231 227 C233.37946437 224.62053563 233.29598679 224.12259892 233.3125 220.875 C232.8260154 203.0543008 226.82706871 185.78109356 214 173 C200.01587965 160.81321174 183.79447567 155.80399352 165.5 155.6875 C164.22660767 155.67904053 164.22660767 155.67904053 162.92749023 155.67041016 C158.23496423 155.72539159 154.40928062 156.2033613 150 158 Z M112.8125 222 C102.94411702 233.87008338 98.80567051 247.69765347 100 263 C102.7504768 281.99548042 111.48272187 298.72223489 126.4453125 311.0078125 C139.99882848 320.82242752 155.22144087 326.73967772 172.125 324.3125 C185.30580757 321.68663599 195.44200036 315.42472291 203.46484375 304.5 C211.63576535 291.19366456 212.77550657 276.28634111 210.38671875 261.1015625 C205.75656412 243.27444733 195.05290476 227.46425483 179.4921875 217.421875 C158.01513708 205.16851081 131.29630748 202.91422945 112.8125 222 Z M-18.546875 233.890625 C-30.15410917 248.76969699 -36.83951493 265.9767237 -35 285 C-32.78239927 298.91970921 -26.63681736 309.72195861 -15.83984375 318.8203125 C-4.47216898 327.031446 8.37578397 328.53673817 22 327 C38.58714019 324.12200739 53.6480502 313.12839673 63.4375 299.74609375 C73.82719773 284.80839712 77.37011565 269.01310084 76 251 C73.68666791 238.19074975 67.18105231 227.12929826 57 219 C31.12546115 203.07982919 0.92312172 211.79277596 -18.546875 233.890625 Z M234.3125 242.6875 C227.23181803 249.76818197 226.78245826 260.59674257 226.75 270.0625 C226.75936069 290.32464154 230.06806639 311.57491814 238.9375 329.9375 C239.24905029 330.59403564 239.56060059 331.25057129 239.8815918 331.92700195 C242.15957882 336.32569333 244.64331281 338.6807393 249 341 C253.58706297 340.529532 256.35619253 336.98013216 259.1640625 333.58984375 C269.58837426 318.88491036 272.91203057 302.21276056 270.53125 284.515625 C267.19798793 267.92867804 257.88163059 254.52660923 244 245 C240.66997431 242.90905364 238.30004568 241.66743017 234.3125 242.6875 Z M-84 259 C-94.00778317 272.25706341 -98.24894232 287.49988884 -97 304 C-94.86517403 317.94752967 -89.54242872 329.58357513 -80.34375 340.33203125 C-78.05971428 342.3077384 -78.05971428 342.3077384 -74.91015625 341.94140625 C-69.63609791 340.23530147 -67.37801011 336.39101159 -64.6875 331.72265625 C-55.65029017 313.39406506 -52.78694109 291.95610336 -52.6875 271.75 C-52.68194092 270.81003174 -52.67638184 269.87006348 -52.6706543 268.90161133 C-52.7720299 259.21374314 -53.87244221 251.12755779 -61 244 C-69.614598 242.69163955 -78.84206502 252.77060993 -84 259 Z M39.1875 341.3125 C30.52109582 352.94965739 28.8686804 365.94327685 30 380 C32.85136939 394.59901126 41.88334034 405.88089509 53.37109375 414.8515625 C67.25281091 423.98119098 84.1281972 426.27357479 100.26171875 423.78515625 C116.1116522 420.45617336 129.64810553 412.20398246 138.6875 398.75 C146.25644938 386.40155674 149.02625553 373.17376029 145.875 358.9375 C141.67018813 344.00652452 132.08146038 332.73420064 118.78125 324.984375 C91.32404318 310.06197999 58.97324456 317.72344817 39.1875 341.3125 Z M183 358 C182.00802461 358.9168962 181.01582869 359.83355386 180.0234375 360.75 C164.85011482 375.03275647 152.957658 395.52274148 151.796875 416.70703125 C151.26362616 428.39577928 151.26362616 428.39577928 156.359375 438.51171875 C163.13752863 444.60856312 171.20388515 445.44005577 180 445 C200.18295797 441.68084144 216.5880693 431.08777733 228.73925781 414.77368164 C239.35411288 399.89827695 242.80864887 383.18436437 240.50390625 365.109375 C238.91279727 356.22793052 236.92918142 347.11647281 229.875 340.9375 C213.77644977 330.08847702 194.13086729 347.30367108 183 358 Z M-62.375 352.5 C-69.68625246 368.24731299 -67.48208496 383.86162188 -61.6875 399.75 C-54.3384363 417.70954621 -41.67123902 430.63151318 -24.1875 438.9375 C-13.70909401 443.29099246 -0.69937112 445.73295865 10.25 441.375 C14.15470952 439.2106753 16.17119002 437.16968676 18 433 C22.38019821 416.64878889 17.70537589 401.12361032 10.21484375 386.51953125 C-0.42309682 368.23625351 -17.32190822 353.3788651 -37.609375 346.8359375 C-46.72687069 344.58807566 -55.65642603 345.42781688 -62.375 352.5 Z M34 457.5 C31.8123956 460.2345055 31.29307032 461.5551383 31 465 C36.17347642 477.25183118 49.93409835 485.46279396 61.52734375 490.546875 C79.4991004 497.29869518 97.26909715 497.65475101 115 490 C126.52785032 484.41312374 139.82122367 476.22191214 145 464 C145.83483326 460.86976283 145.83483326 460.86976283 145 458 C137.81277815 447.73254022 122.61086938 445.06795813 111 443 C86.48537443 439.26843905 53.88180979 440.93182517 34 457.5 Z " fill="#000000" transform="translate(169,0)"/>
</svg>
